<svg width="1600" height="1200" viewBox="0 0 1600 1200" fill="none" xmlns="http://www.w3.org/2000/svg">
  <rect width="1600" height="1200" fill="#0F1720"/>
  <rect x="60" y="95" width="1480" height="1010" rx="48" fill="url(#paint0_linear)"/>
  <g opacity="0.92">
    <rect x="170" y="700" width="290" height="240" rx="20" fill="#1B2633"/>
    <rect x="215" y="635" width="200" height="90" rx="14" fill="#2F5D7C"/>
    <rect x="500" y="560" width="360" height="380" rx="24" fill="#243240"/>
    <rect x="560" y="470" width="240" height="110" rx="18" fill="#2E4255"/>
    <rect x="920" y="460" width="220" height="480" rx="24" fill="#31475B"/>
    <rect x="1200" y="365" width="220" height="575" rx="24" fill="#39526B"/>
    <rect x="1230" y="285" width="160" height="96" rx="16" fill="#4A6985"/>
  </g>
  <path d="M0 988L294 878L617 958L905 829L1213 898L1600 804V1200H0V988Z" fill="url(#paint1_linear)"/>
  <g opacity="0.95">
    <circle cx="220" cy="220" r="82" fill="#C9894B" fill-opacity="0.18"/>
    <circle cx="1388" cy="230" r="100" fill="#6FA9C9" fill-opacity="0.14"/>
    <circle cx="1140" cy="168" r="42" fill="#C9894B" fill-opacity="0.32"/>
  </g>
  <path d="M140 1010C370 942 522 926 741 951C937 973 1118 1025 1432 952" stroke="#C9894B" stroke-opacity="0.36" stroke-width="6" stroke-linecap="round" stroke-dasharray="14 18"/>
  <defs>
    <linearGradient id="paint0_linear" x1="800" y1="95" x2="800" y2="1105" gradientUnits="userSpaceOnUse">
      <stop stop-color="#18232E"/>
      <stop offset="1" stop-color="#0F1720"/>
    </linearGradient>
    <linearGradient id="paint1_linear" x1="800" y1="804" x2="800" y2="1200" gradientUnits="userSpaceOnUse">
      <stop stop-color="#15212C" stop-opacity="0"/>
      <stop offset="1" stop-color="#0A1017"/>
    </linearGradient>
  </defs>
</svg>
